<svg id="レイヤー_1" data-name="レイヤー 1" xmlns="http://www.w3.org/2000/svg" viewBox="0 0 469 51"><defs><style>.cls-1{fill:#fbc700;}.cls-2,.cls-4{fill:#fff;}.cls-3{fill:#231815;}.cls-4{font-size:11px;font-family:NotoSansCJKjp-Bold-90ms-RKSJ-H, Noto Sans CJK JP;}.cls-5{fill:none;}</style></defs><path class="cls-1" d="M45.13,14.35a4.61,4.61,0,0,0-3.87,2V8.12A4.29,4.29,0,0,0,37,3.85a4.47,4.47,0,0,0-2,.45A4.46,4.46,0,0,0,29,2.46l-.06,0A4.22,4.22,0,0,0,27.1,4.3a4.67,4.67,0,0,0-2-.44,4.33,4.33,0,0,0-4.24,3.31,4.79,4.79,0,0,0-1.59-.27,4.29,4.29,0,0,0-4.37,4.2V31.41c.15,5.94,1.56,10.63,4.17,14C22,49.12,26.43,51,32.17,51c6,0,10.53-2.1,13.52-6.24,2.66-3.71,4-9,4-15.68V18.81a4.5,4.5,0,0,0-4.59-4.41ZM48,29.07c0,6.34-1.25,11.31-3.71,14.74-2.64,3.65-6.72,5.51-12.09,5.51s-9.19-1.68-11.8-5c-2.36-3-3.64-7.35-3.8-12.83V11.14a2.65,2.65,0,0,1,2.62-2.58h0A2.88,2.88,0,0,1,20.72,9V25.25a.86.86,0,0,0,.87.84.87.87,0,0,0,.88-.84V8.1a2.6,2.6,0,0,1,2.62-2.56A2.54,2.54,0,0,1,26.54,6V23.3a.85.85,0,0,0,.79.91.83.83,0,0,0,.94-.7v0a.48.48,0,0,0,0-.17V6.21a2.7,2.7,0,0,1,.19-.92h0A2.72,2.72,0,0,1,31,3.69a2.65,2.65,0,0,1,2.49,1.67,4.11,4.11,0,0,0-1.06,2.8V23.22a.86.86,0,0,0,.94.77h0a.9.9,0,0,0,.8-.77V8.1a2.5,2.5,0,0,1,.87-1.89h0a2.75,2.75,0,0,1,3.77.15,2.49,2.49,0,0,1,.7,1.76V24.28a1.36,1.36,0,0,0,1.56,1.11,1.33,1.33,0,0,0,1.17-1.28v-5.3a2.91,2.91,0,0,1,3.38-2.27A2.87,2.87,0,0,1,48,18.68V29.12Z"/><path d="M45.13,14.35a4.61,4.61,0,0,0-3.87,2V8.12A4.29,4.29,0,0,0,37,3.85a4.47,4.47,0,0,0-2,.45A4.46,4.46,0,0,0,29,2.46l-.06,0A4.22,4.22,0,0,0,27.1,4.3a4.67,4.67,0,0,0-2-.44,4.33,4.33,0,0,0-4.24,3.31,4.79,4.79,0,0,0-1.59-.27,4.29,4.29,0,0,0-4.37,4.2V31.41c.15,5.94,1.56,10.63,4.17,14C22,49.12,26.43,51,32.17,51c6,0,10.53-2.1,13.52-6.24,2.66-3.71,4-9,4-15.68V18.81a4.5,4.5,0,0,0-4.59-4.41ZM48,29.07c0,6.34-1.25,11.31-3.71,14.74-2.64,3.65-6.72,5.51-12.09,5.51s-9.19-1.68-11.8-5c-2.36-3-3.64-7.35-3.8-12.83V11.14a2.65,2.65,0,0,1,2.62-2.58h0A2.88,2.88,0,0,1,20.72,9V25.25a.86.86,0,0,0,.87.84.87.87,0,0,0,.88-.84V8.1a2.6,2.6,0,0,1,2.62-2.56A2.54,2.54,0,0,1,26.54,6V23.3a.85.85,0,0,0,.79.91.83.83,0,0,0,.94-.7v0a.48.48,0,0,0,0-.17V6.21a2.7,2.7,0,0,1,.19-.92h0A2.72,2.72,0,0,1,31,3.69a2.65,2.65,0,0,1,2.49,1.67,4.11,4.11,0,0,0-1.06,2.8V23.22a.86.86,0,0,0,.94.77h0a.9.9,0,0,0,.8-.77V8.1a2.5,2.5,0,0,1,.87-1.89h0a2.75,2.75,0,0,1,3.77.15,2.49,2.49,0,0,1,.7,1.76V24.28a1.36,1.36,0,0,0,1.56,1.11,1.33,1.33,0,0,0,1.17-1.28v-5.3a2.91,2.91,0,0,1,3.38-2.27A2.87,2.87,0,0,1,48,18.68V29.12Z"/><path class="cls-1" d="M45.13,16a2.85,2.85,0,0,0-2.91,2.8v5.36a1.38,1.38,0,0,1-2.73.17V8.12a2.62,2.62,0,0,0-2.67-2.56,2.72,2.72,0,0,0-1.77.65h0a2.5,2.5,0,0,0-.87,1.89V23.22a.88.88,0,0,1-1.75,0V8.12a4.09,4.09,0,0,1,1.06-2.8,2.69,2.69,0,0,0-3.44-1.48,2.62,2.62,0,0,0-1.54,1.48h0a3,3,0,0,0-.19.89V23.29a.83.83,0,0,1-.75.92h0a.87.87,0,0,1-1-.73V6a2.64,2.64,0,0,0-1.45-.42A2.6,2.6,0,0,0,22.48,8.1V25.19a.84.84,0,0,1-.86.83h0a.85.85,0,0,1-.88-.81V9a2.72,2.72,0,0,0-1.45-.39,2.62,2.62,0,0,0-2.64,2.51h0V31.5c.16,5.52,1.46,9.8,3.8,12.84,2.61,3.29,6.56,5,11.74,5s9.46-1.85,12.09-5.52C46.73,40.36,48,35.39,48,29.05V18.81A2.86,2.86,0,0,0,45.13,16Z"/><path d="M40.08,34.11a6.46,6.46,0,0,1,.84.4,3.79,3.79,0,0,0-.36.56c-.27-.15-.54-.29-.82-.42Z"/><path d="M33.54,42.13h0a3.13,3.13,0,0,1,.36-.58h0A7.58,7.58,0,0,0,33,41h0l-.33.6h0a4.73,4.73,0,0,1,.86.53Z"/><path d="M33.52,42.27h0a5.76,5.76,0,0,1-.73,1.62h0l.63.48a.24.24,0,0,0,.12,0,.07.07,0,0,0,.07-.07s0,0,0,0h0a.33.33,0,0,0,0-.14,10.6,10.6,0,0,0,.58-1.4h0A3.07,3.07,0,0,1,33.52,42.27Z"/><path d="M33.33,39.72h0l-.42.56h0a6,6,0,0,1,.73.6h0v-.11l.09-.13.29-.37h0A3.63,3.63,0,0,0,33.33,39.72Z"/><path d="M34.12,40.52h1v.42h-1v1.77h0v1.61h.68v-.14h1.8v.16h.67v-3.4h-1v-.42h1.06v-.6H34.12ZM36.6,43.6H34.79v-.26H36.6Zm-.35-2.1h.35v.58h0c-.25,0-.33,0-.33-.14Zm-.73-1h.29v.4h-.29Zm0,1h.29v.84a.27.27,0,0,0,.26.3h.53v.23H34.77v-.44a1,1,0,0,1,.37.26,2.44,2.44,0,0,0,.39-1.19Zm-.48.36a.55.55,0,0,1-.25.36V41.5h.29a2.16,2.16,0,0,1,0,.36Z"/><path d="M30.74,42.84a4.39,4.39,0,0,1-.32-1.27h-.54a6.14,6.14,0,0,1,0,1,2.13,2.13,0,0,1-.74,1.27h0a3.09,3.09,0,0,0-.43-.85h.38V42a.84.84,0,0,1,.45.25,3.25,3.25,0,0,0,.46-.91h.93a6.15,6.15,0,0,1-.18.71,3.05,3.05,0,0,1,.53.2h0a9.8,9.8,0,0,0,.33-1.32h0l-.29-.25H30.16c0-.07.08-.35.08-.39s.12,0,.12-.08a.11.11,0,0,0-.1-.09h0L29.68,40a5.72,5.72,0,0,1-.54,1.7v-.4h-.8V41.1a.08.08,0,0,0,.08-.08h-.61l.29-.33a3.46,3.46,0,0,0,.73.64h0a1.67,1.67,0,0,1,.34-.45,4.69,4.69,0,0,1-.69-.56h0s0-.07-.1-.08l-.64-.14h0a3.64,3.64,0,0,1-.48.56,2.33,2.33,0,0,1-.7.51h0a1.53,1.53,0,0,1,.41.47v2.25l-.34.08.16.61a.12.12,0,0,0,.1.11l.12-.07s1.08-.34,1.27-.38l.08.29.41-.14a2,2,0,0,1,.35.37h0a2.39,2.39,0,0,0,.95-1.16,3.48,3.48,0,0,0,.77,1.14h0l.44-.37h.09A3.37,3.37,0,0,1,30.74,42.84Zm-2.39-1.4v.31h-.64v-.27Zm-.54-.75V41h-.39Zm-.1,1.3h.64v.3h-.64ZM28,43l.16.32-.48.13v-.66h.79Z"/><path d="M24.39,32.81c.84,0,1.82-.38,1.82-1.4a1.25,1.25,0,0,0-.92-1.17L24.23,30H24c-.38-.1-.44-.3-.44-.44,0-.4.53-.45.7-.45.53,0,.79.21.83.65v.1h1v-.12c0-.84-.71-1.4-1.76-1.4-.82,0-1.69.41-1.69,1.32a1.17,1.17,0,0,0,1,1l.58.14a5.56,5.56,0,0,1,.7.19.4.4,0,0,1,.29.42c0,.34-.3.53-.81.53s-1-.11-1-.78V31.1h-.92v.11C22.49,32.2,23.21,32.81,24.39,32.81Z"/><path d="M28.18,32.71h1V29.18h1.37v-.84H26.81v.83h1.37Z"/><path d="M35.28,30.52a2.18,2.18,0,0,0-4.35.37,2.17,2.17,0,0,0,2.23,1.92,2.11,2.11,0,0,0,2.12-2.09Zm-3.38,0c0-.68.31-1.48,1.21-1.48s1.21.8,1.21,1.48S34,32,33.11,32,31.9,31.21,31.9,30.52Z"/><path d="M39.87,29.73c0-.42-.14-1.4-1.57-1.4h-2v4.36h1V31.11h1a1.63,1.63,0,0,0,1.18-.39A1.38,1.38,0,0,0,39.87,29.73Zm-1.67.57h-1V29.14h1c.44,0,.64.18.64.59a.55.55,0,0,1-.53.57H38.2Z"/><path d="M41.93,32.71v-.93h-1v.93Z"/><path d="M41.68,31.41s.2-1.68.22-1.71V28.4h-1v1.28l.19,1.73Z"/><path d="M39.65,35.23a4.91,4.91,0,0,1,.88.46,5.6,5.6,0,0,0-.38.61,5,5,0,0,0-.85-.47Z"/><path d="M30.07,37.1a3.81,3.81,0,0,1-.31.56,2.63,2.63,0,0,0-.42-.17A4,4,0,0,1,29,38.6a3.31,3.31,0,0,0-.66-.31,3.19,3.19,0,0,0,.44-1.78V35.6h2.36v-.25H28.55v-.5h.78v-.64h.81s0,.08-.11.11v.51h.48v-.89h.83s0,.08-.15.13h1.46v.41H31.19v.21h2v.49h-.44a1.82,1.82,0,0,1,.15.27h.23v.48h-.65l.36.16s.09,0,.09.07,0,.07-.13.09a5.23,5.23,0,0,1-.55,1c.08.15.26.42.36.42s.16-.49.17-.58a1.64,1.64,0,0,0,.56.32c-.13,1-.41,1-.59,1-.45,0-.83-.49-1-.67a3.94,3.94,0,0,1-.9.66,1.9,1.9,0,0,0-.41-.44,2,2,0,0,1-.68.09,1.3,1.3,0,0,0-.12-.55H30c.07,0,0,0,0-.12Zm.55.76s0,.18-.07.21a3.68,3.68,0,0,0,.95-.66,4.44,4.44,0,0,1-.37-1.29H29.46v.39a3.47,3.47,0,0,1-.08.91,3.1,3.1,0,0,0,.3-.57l.4.15v-.3H29.6v-.38h1.46v.38h-.44V37l.43-.15a1.62,1.62,0,0,1,.23.56,1.88,1.88,0,0,0-.44.24,2.17,2.17,0,0,0-.22-.65Zm1.21-2.47h-.1v.21h.64l-.14-.25Zm-.07.73a3,3,0,0,0,.16.72,3.86,3.86,0,0,0,.32-.72Z"/><path d="M39.48,38.15a7.17,7.17,0,0,0,.7-1.78,1.59,1.59,0,0,0,.63.42,15.51,15.51,0,0,1-.53,1.54.17.17,0,0,1,0,.14h-.07Z"/><path d="M43.05,37.34v-.55h.46l-.11.09v.81H42.12V38h-.35V36.7h.45l-.1.08v.36h.19v-.78h-.75v2h-.64V36h1.39v-.25H40.85v-.51h.8V35h-.54v-.53h.58v-.42h.78s0,.09-.12.11v.23h.49V34h.79a.11.11,0,0,1-.12.11v.25h.65v.53h-.65v.28h.81v.51H42.86v.26h1.35V38c0,.49-.23.53-.87.53a2.22,2.22,0,0,0-.23-.67h.38c.11,0,.13,0,.13-.16V36.37h-.75v.79ZM42.32,35v.28h.5V35Z"/><path d="M38.08,37.4a4.21,4.21,0,0,1-.95-1h1.56v-.65H36.81v-.53h1.62v-.67H36.81v-.36a.2.2,0,0,0,.09-.13s0-.08-.13-.08H36v.54H34.4v.67H36v.53H34.15v.66H35.6A3.62,3.62,0,0,1,34,37.8h0a1.58,1.58,0,0,1,.53.56h0a2.37,2.37,0,0,0,.65-.43,4.59,4.59,0,0,0,.73-.8v1.4h.79v-1.4a3.43,3.43,0,0,0,.43.5,4.92,4.92,0,0,0,1,.77h0a2.1,2.1,0,0,1,.52-.51h0A3.87,3.87,0,0,1,38.08,37.4Z"/><path d="M27.78,36.4A1.83,1.83,0,0,1,26,38.47a1.65,1.65,0,0,1-1.46-.65,3.09,3.09,0,0,1-.36-1.54A1.83,1.83,0,0,1,26,34.21C27.61,34.21,27.78,35.6,27.78,36.4Zm-2.58,0c0,.17,0,1.4.79,1.4s.79-1.19.79-1.4,0-1.4-.79-1.4S25.2,36.19,25.2,36.4Z"/><path d="M23.76,38.4h-3.6c0-.89.6-1.26,1.74-2,.86-.56.86-.68.86-.89s-.43-.49-.7-.49c-.73,0-.8.49-.82.82h-1a1.47,1.47,0,0,1,.32-1A1.88,1.88,0,0,1,22,34.25c1.22,0,1.66.64,1.66,1.24a1.17,1.17,0,0,1-.23.7A8.06,8.06,0,0,1,22,37.26a2.73,2.73,0,0,0-.55.39h2.31Z"/><circle class="cls-2" cx="394.31" cy="27.95" r="17.5"/><path class="cls-3" d="M395.29,22.83c.79.27,1.45.71,1.53,1.5l.31,2.76-2.51,10,4.14-6.7,1.6,6.7,1.41-9.67s-2.16-.08-2.92-.08c-2.09-.1,0-.42,0-.42l2.95-.38-.58-2a16.82,16.82,0,0,0-.94-2.57c-.26-.58-1.12-.48-2-.5h-7.83S395.1,22.76,395.29,22.83Z"/><path class="cls-3" d="M399.87,19.1A1.74,1.74,0,1,1,398,17.45h.12A1.74,1.74,0,0,1,399.87,19.1Z"/><path class="cls-3" d="M391.92,23.8c-.09-.11-.82-.9-.94-1s-.17-.2-.44,0-2.31,2.1-2.59,2.37-.2.42-.08.54.73.79.88.94.27.23.55,0,2.33-2.13,2.59-2.36S392,23.92,391.92,23.8Z"/><path class="cls-3" d="M396.21,14.53c.12.06.31,0,.73-.08a4.78,4.78,0,0,1,.1-1,1.16,1.16,0,0,0-1.1.71.27.27,0,0,0,.17.35Z"/><path class="cls-3" d="M382.48,20.73a1.71,1.71,0,0,0-.24-.51A4.31,4.31,0,0,0,381.05,19a1.54,1.54,0,0,0,.4,2,.74.74,0,0,0,1,0A.82.82,0,0,0,382.48,20.73Z"/><path class="cls-3" d="M394.32,10.45A17.5,17.5,0,1,0,411.81,28h0a17.5,17.5,0,0,0-17.49-17.51Zm13.07,7.44a.33.33,0,0,1,.27.17c0,.08.13.27,0,.38s-.1.07-.28.1a7.88,7.88,0,0,0-1.32.69,8.77,8.77,0,0,0-1.06.85.24.24,0,0,1-.33,0h0a.16.16,0,0,1-.06-.08c-.19-.24.08-.48.14-.58a6.56,6.56,0,0,1,1.08-.8,5.55,5.55,0,0,1,1.58-.73Zm-6.62-2.44c.42-.53,1.2-.41,2-.11,0-.19.17-.72.22-1.1s.05-.46.1-.52a.3.3,0,0,1,.43,0h0c.17.11.15.29.13.47s-.19.87-.32,1.33a12.64,12.64,0,0,1,1.29.61c.27.24.13.41.12.46s-.31,0-.39,0l-.39-.14c-1.49-.73-2.34-.92-2.65-.54s.3,1,.77,1.34a10.34,10.34,0,0,0,1.21.83.36.36,0,0,1,.28.16.27.27,0,0,1,.11.33h0a.74.74,0,0,1-.5,0,11.19,11.19,0,0,1-1.44-1,3.61,3.61,0,0,1-1-1.17A.8.8,0,0,1,400.77,15.45Zm-5.44-1.4c.2-.84,1.2-1.1,1.82-1.1a1.16,1.16,0,0,1,.07-.37c-.29-.06-.57-.1-.85-.13h0c-.15,0-.41-.06-.35-.33a.18.18,0,0,1,.17-.18h.37a5,5,0,0,1,.85.21c.13-.4.14-.43.19-.49a.25.25,0,0,1,.27-.13.22.22,0,0,1,.23.29v.12a1.11,1.11,0,0,1-.1.29c.4.08.73.13,1.1.19l.64.1a.26.26,0,0,1,.26.26h0a.28.28,0,0,1-.27.26h0c-.21,0-1.1-.19-1.86-.34,0,0-.06.23-.06.27a1.06,1.06,0,0,1,.46.07c1.16.25,1.81,1,1.62,1.8a1.58,1.58,0,0,1-1.92,1c-.05,0-.32-.06-.25-.31s.28-.21.4-.19a1,1,0,0,0,1.16-.61.88.88,0,0,0-.45-.87,2.88,2.88,0,0,1-1.16,1c.05.2.05.2,0,.26a.36.36,0,0,1-.37.2.27.27,0,0,1-.21-.26,1.57,1.57,0,0,1-1,.09.84.84,0,0,1-.76-.9h0a.28.28,0,0,1,0-.13ZM406.53,28a12.23,12.23,0,1,1-12.25-12.21h0A12.24,12.24,0,0,1,406.54,28Zm-22.75,8.62-1.17,1c-.14.14-.3.27-.55,0s-.12-.44,0-.56l1.17-1c.16-.13.3-.23.56.06s.14.44,0,.55Zm10.09-21.68a3.23,3.23,0,0,1-1.38.4,1.88,1.88,0,0,1-1-.09c-.51-.29,0-.91,0-.91s.21-.22.36-.12.2.17.12.36a.24.24,0,0,0,.11.3,4.93,4.93,0,0,0,.66-.07,5.3,5.3,0,0,0,.93-.3c.19-.09.37-.09.43,0a.29.29,0,0,1-.17.41Zm-1.95-1.44c-.25,0-.35,0-.44-.07a.76.76,0,0,1-.09-.18.29.29,0,0,1,.27-.32h.46a6.64,6.64,0,0,0,.88-.12l.36,0a.39.39,0,0,1,.41.33c0,.22-.09.39-.56.68a.88.88,0,0,1-.46.16.21.21,0,0,1-.24-.18h0c0-.1,0-.16.5-.44a8.33,8.33,0,0,1-1.1.25Zm1.45-2.14a.07.07,0,0,1,.09,0c.07,0,.1,0,.17.1s.22.32.23.4a.21.21,0,0,1-.16.2c-.11,0-.14,0-.24-.22a.64.64,0,0,1-.14-.34.11.11,0,0,1,.06-.11Zm-.45.14c.2,0,.4.34.4.53s-.07.17-.2.17-.12,0-.14-.06a2.27,2.27,0,0,1-.21-.45s0-.18.15-.18Zm-3.05,1c.22,0,.45-.06.68-.1v-.6a.27.27,0,0,1,.21-.3h0c.2,0,.32.07.33.25a4,4,0,0,1,0,.49c.38-.07,1.12-.15,1.16-.15.21,0,.36-.07.4.2s-.81.32-1.6.5a15.32,15.32,0,0,1-.45,2.3c-.1.36-.18.54-.4.56a.26.26,0,0,1-.31-.2h0A1,1,0,0,1,390,15a11.83,11.83,0,0,0,.48-2.12,3.89,3.89,0,0,1-.56.1c-.16,0-.44.06-.47-.21S389.74,12.45,389.87,12.45ZM385,14.24c.14-.09.34-.14.43,0s0,0,.1.65c0,.1.05.73.06.87a1.09,1.09,0,0,1,.45-.52.66.66,0,0,1,.8-.07,1.08,1.08,0,0,1,.29.31l.35.47c.12.21.23.35.49.18.42-.33.07-1.07,0-1.46-.07-.23-.12-.34.06-.46a.28.28,0,0,1,.39.1h0c.19.25.77,1.77-.13,2.3a1,1,0,0,1-.91.14,1.64,1.64,0,0,1-.42-.41l-.31-.5c-.1-.11-.21-.3-.47-.11a1.38,1.38,0,0,0-.42,1.1,6,6,0,0,0,.09,1c0,.34.05.4-.14.5a.35.35,0,0,1-.45,0,2.47,2.47,0,0,1-.13-.89c-.09-1-.13-1.53-.3-2.8a.35.35,0,0,1,.15-.41Zm-4.16,4a1.92,1.92,0,0,1,2.58-.84h0a.65.65,0,0,1,.16.09,2,2,0,0,1,.25,2.74c-.2.28-.41.18-.43.15a.29.29,0,0,1-.07-.41V20a1.34,1.34,0,0,0-.14-1.89h-.07a1.34,1.34,0,0,0-1.77.38v.06c1.31.94,2,2,1.54,2.79a1.26,1.26,0,0,1-1.76.27h0A2.31,2.31,0,0,1,380.87,18.28Zm5.35,20.54L385,39.88a1.47,1.47,0,0,1-1.42.38,4.73,4.73,0,0,1-2-1.27c0-.06-.28-.33-.08-.53s.39,0,.54.2a3,3,0,0,0,1.69.94c.11,0,.34,0,.81-.39l1.13-1c.15-.12.18-.16.32-.12a.76.76,0,0,1,.25.16.58.58,0,0,1,.14.34c0,.09,0,.14-.16.23ZM391,41.75c-.11.27-.42.14-.67,0l-.32-.13-.23.63a1.25,1.25,0,0,1-.88.73,3.9,3.9,0,0,1-1.92-.09c-.26-.09-.33-.27-.27-.43s.29-.1.45-.08a3.07,3.07,0,0,0,1.35,0c.41-.13.5-.36.65-.79l.13-.29-1.38-.54-.23.6c-.1.18-.11.23-.23.26a.48.48,0,0,1-.29,0,.66.66,0,0,1-.32-.22.43.43,0,0,1,.06-.29l.25-.62-.31-.09c-.33-.12-.53-.26-.42-.54s.43-.22.67-.12l.35.12.14-.37c.09-.18.11-.22.22-.25a.39.39,0,0,1,.3,0,.55.55,0,0,1,.29.23.57.57,0,0,1-.07.28l-.14.39,1.4.53.14-.37c.07-.19.11-.23.21-.26a.51.51,0,0,1,.3,0,.61.61,0,0,1,.28.25.51.51,0,0,1-.07.26l-.15.39.31.11c.24.13.56.28.4.64Zm3.71.57V44.4c0,.21,0,.41-.44.36s-.4-.2-.4-.41l0-1.66a5.66,5.66,0,0,1-1.89.48c-.33,0-.32-.19-.3-.31s.09-.19.37-.29a8.39,8.39,0,0,0,2.65-.94,6.35,6.35,0,0,0,.74-.54.44.44,0,0,1,.38-.13.28.28,0,0,1,.3.27h0v.06c0,.22-.69.68-1.4,1Zm6,.51A5.74,5.74,0,0,1,399.36,44h-.06c-.24.12-.4.06-.49-.13s.09-.3.2-.37a3.48,3.48,0,0,0,1.86-2.36,2.17,2.17,0,0,0,0-1c-.07-.1-.12-.1-.27,0l-1.58.74a3.06,3.06,0,0,1-1,1.73.28.28,0,0,1-.37,0h0a.11.11,0,0,1,0-.08c0-.1,0-.17.07-.34a3.17,3.17,0,0,0,.63-1.58l.81-.4.2-.07,1.3-.63c.43-.17.67-.07.84.28a3.33,3.33,0,0,1-.69,3.14Zm3.6-1.5a.58.58,0,0,1-.17.35.37.37,0,0,1-.46.07.36.36,0,0,1,0-.32,2.34,2.34,0,0,0-.8-2.22,4.48,4.48,0,0,0-.5-.48s-.2-.2.08-.45c.13-.15.27-.17.36-.1s.36.33.53.51a2.92,2.92,0,0,1,1,2.64Zm1.68-1.4a.61.61,0,0,1-.5.22,1.46,1.46,0,0,1-.28-.21l-1.88-2c-.16-.15-.2-.17-.18-.27a.52.52,0,0,1,.14-.25.41.41,0,0,1,.3-.11c.07,0,.11,0,.23.17l1.73,1.79c.05.1.1.13.18,0a2.09,2.09,0,0,0,.11-1.28,3.68,3.68,0,0,0-.23-.66.3.3,0,0,1,.06-.42h0s.26-.27.46-.08a2.5,2.5,0,0,1,.36,1,2.79,2.79,0,0,1-.55,2.1Zm2.92-18.11a.39.39,0,0,1-.26,0c-.09,0-.14-.13-.21-.26l-.25-.36-1,.63a4.71,4.71,0,0,1,0,.92.41.41,0,0,1-.15.25.33.33,0,0,1-.4-.13c-.05-.08,0-.15,0-.26a4,4,0,0,0,0-.49.71.71,0,0,1-.65-.05,1.46,1.46,0,0,1-.5-.52c-.33-.57-.4-1.16.15-1.51s.91.06,1.16.48a2.38,2.38,0,0,1,.28.68l.78-.52-.72-1.13-.06-.07c-.13-.25-.06-.36.06-.46s.37.07.47.25l.73,1.18.25-.19c.15-.1.32-.23.46,0s0,.38-.16.48l-.24.16.24.38c.13.18.24.4,0,.53Z"/><path class="cls-3" d="M405.94,20.62c-.11.1-.25.3,0,.67s.48.32.65.24a.93.93,0,0,0-.17-.63C406.38,20.81,406.19,20.45,405.94,20.62Z"/><path class="cls-3" d="M398.19,13.54a2.82,2.82,0,0,0-.57-.09c0,.24-.06.48-.08.73A2.63,2.63,0,0,0,398.19,13.54Z"/><path class="cls-3" d="M394.32,27.39c0-.16-.06-.26-.13-.26h-7.77c-.08,0-.14.1-.14.26s.06.23.14.23h.23l.32,2.49h0l.07.53h0l.78,6.42h5l.43-3.61h0l.07-.53h0l.25-2.26h0l.05-.53h0l.29-2.49h.27A.26.26,0,0,0,394.32,27.39Zm-7.13.23h1.61l.07,2.49h-1.38Zm.37,3h1.31l.06,2.26h-1.06Zm.7,5.9-.39-3.07h1l.08,3.11Zm2.47,0h-1.17l-.09-3.07h1.34Zm.14-3.63h-1.4l-.06-2.26h1.46Zm0-2.78H389.4V27.62H391Zm1.47,6.43h-1.08l.07-3.1h1.37Zm.43-3.64h-1.43l.06-2.26H393Zm.33-2.79h-1.68l.06-2.49h1.92Z"/><path class="cls-2" d="M451.38,28a17.09,17.09,0,1,1-17.1-17.08h0a17.08,17.08,0,0,1,17.09,17.07Z"/><path class="cls-3" d="M434.29,45.45A17.5,17.5,0,1,1,451.81,28h0A17.52,17.52,0,0,1,434.29,45.45Zm0-34.17A16.67,16.67,0,1,0,451,28h0A16.69,16.69,0,0,0,434.29,11.28Z"/><path class="cls-3" d="M424.1,32.27c0,.25,0,.5-.66.5-.46,0-1.44-.13-1.44-1.18s.57-1.9,2.1-2.55Zm0-8.29h-3.43v1.47h3.43v2.1c-2,.67-3.6,2.23-3.6,4a2.82,2.82,0,0,0,2.95,2.67h.22c2,0,2-1.19,2-1.67v-4a8.11,8.11,0,0,1,2.14-.22c.58,0,3,0,3,2.26,0,2.54-2.77,2.5-4.46,2.48l.34,1.44c2.82.07,5.7-.63,5.7-3.81,0-3.78-3.84-3.78-4.49-3.78a11.28,11.28,0,0,0-2.24.23V25.45h3.1V24h-3.11V22.37h-1.54Zm4.55-.81a9.55,9.55,0,0,1,3,3.7L433,26a9.74,9.74,0,0,0-3.2-3.8Z"/><path class="cls-3" d="M441,30.19c.85-.85,1.35-1.59,1.52-4h1.14v2.38a.91.91,0,0,0,.79,1h1.72v1.12h-6.1v-4.5h1.17a3.67,3.67,0,0,1-1.1,2.91Zm-2.6-6.63h2.84V25h-2.5V35.08h1.34v-.57h6.1v.57h1.31V25h-2.62V23.56H448V22.23h-9.63Zm5.26,0V25h-1.15V23.56Zm2.51,2.63v2.26h-.9c-.22,0-.41,0-.41-.39V26.19Zm0,5.75v1.25h-6.1V31.94Zm-11.21-9a13.62,13.62,0,0,1,2.3,1.51l.88-1.26a12.28,12.28,0,0,0-2.4-1.41Zm-.5,3.95a9.4,9.4,0,0,1,2.29,1.44l.87-1.34a11.69,11.69,0,0,0-2.48-1.35Zm2.43,2.32a16.9,16.9,0,0,1-2.47,4.53l1.05,1.35A23.24,23.24,0,0,0,438.12,30Z"/><path class="cls-3" d="M440,17a4.15,4.15,0,0,0,.15.7,4,4,0,0,0,1.2-.15l.17.69a4.71,4.71,0,0,1-1.12.14,3.88,3.88,0,0,0,.64,1l-.7.32a7.16,7.16,0,0,1-.7-1.31h-1.93v-.67h1.69c-.07-.27-.1-.41-.15-.65Zm-.6,2.31c-.25.08-.78.24-.78.61s.46.38,1.17.38a8.51,8.51,0,0,0,1.24-.06v.7H440a2.92,2.92,0,0,1-1.57-.25.9.9,0,0,1-.48-.79c0-.79.92-1.09,1.17-1.17Z"/><path class="cls-3" d="M443.25,17.06a10.32,10.32,0,0,0-.16,2,7.49,7.49,0,0,0,.18,1.77l-.74.1a8.5,8.5,0,0,1-.15-1.75,15.25,15.25,0,0,1,.15-2.13Zm1.56.8V17h.74v.87h.75v.67h-.73a3.18,3.18,0,0,1-.2,1.53,2,2,0,0,1-1.57.91l-.31-.65c1.27-.2,1.38-.5,1.36-1.79h-1.37v-.67Z"/><text class="cls-4" transform="translate(56.02 14.13)">ストップ！20歳未満飲酒・飲酒運転。妊娠中や授乳期の飲酒は、<tspan x="0" y="17">胎児・乳児の発育に悪影響を与えるおそれがあります。</tspan><tspan x="0" y="34">ほどよく、楽しく、いいお酒。のんだあとはリサイクル。</tspan></text><rect class="cls-5" width="469" height="51"/></svg>